<svg width="694" height="616" viewBox="0 0 694 616" fill="none" xmlns="http://www.w3.org/2000/svg">
<path d="M408.423 17.7239C415.952 16.2171 423.723 15.3786 431.312 16.5544C438.902 17.727 446.339 21.0748 451.358 26.8562C459.541 36.2849 460.979 52.1727 461.604 64.8545C462.07 74.3116 462.118 83.7906 461.784 93.2508C461.696 95.7601 462.502 104.215 460.461 105.495C460.246 105.63 459.868 105.447 459.611 105.526C456.045 106.604 450.403 105.507 446.716 105.498C432.308 105.469 360.018 105.318 346.726 105.293C342.665 82.4288 355.455 42.8859 389.624 24.9617C395.722 21.7652 401.665 19.0794 408.423 17.7239Z" fill="#C3CABA"/>
<g filter="url(#filter0_d_13_196)">
<path d="M200.473 459H596.527C606.176 459 614 451.178 614 441.525V112.472C614 102.822 606.176 95 596.527 95H200.473C190.824 95 183 102.822 183 112.472V441.525C183 451.178 190.824 459 200.473 459Z" fill="#C3CABA"/>
</g>
<path d="M584.626 417H209.377C206.964 417 205 415.039 205 412.622V152.381C205 149.968 206.964 148 209.377 148H584.626C587.036 148 589 149.968 589 152.381V412.622C589 415.039 587.036 417 584.626 417ZM209.377 149.115C207.577 149.115 206.115 150.58 206.115 152.381V412.622C206.115 414.423 207.577 415.888 209.377 415.888H584.626C586.423 415.888 587.885 414.423 587.885 412.622V152.381C587.885 150.58 586.423 149.115 584.626 149.115H209.377Z" fill="white" fill-opacity="0.4"/>
<path d="M535 148H536V417H535V148Z" fill="white" fill-opacity="0.4"/>
<path d="M479.835 417L479 416.994L480.165 148L481 148.003L479.835 417Z" fill="white" fill-opacity="0.4"/>
<path d="M425 148H427V417H425V148Z" fill="white" fill-opacity="0.4"/>
<path d="M371 148H372V417H371V148Z" fill="white" fill-opacity="0.4"/>
<path d="M315 148H317V417H315V148Z" fill="white" fill-opacity="0.4"/>
<path d="M261 148H262V417H261V148Z" fill="white" fill-opacity="0.4"/>
<path d="M205 214H589V216H205V214Z" fill="white" fill-opacity="0.4"/>
<path d="M205 282H589V283H205V282Z" fill="white" fill-opacity="0.4"/>
<path d="M205 346V344.415C588.19 343.503 588.785 344.334 589 344.644L588.608 345.205L588.491 345.973C584.172 345.124 208.797 345.987 205 346Z" fill="white" fill-opacity="0.4"/>
<path d="M564 122C564 127.525 568.701 132 574.502 132C580.299 132 585 127.525 585 122C585 116.478 580.299 112 574.502 112C568.701 112 564 116.478 564 122Z" fill="#A2AB9A"/>
<path d="M537 122C537 127.525 541.701 132 547.502 132C553.299 132 558 127.525 558 122C558 116.478 553.299 112 547.502 112C541.701 112 537 116.478 537 122Z" fill="#A2AB9A"/>
<path d="M509 122C509 127.525 513.477 132 518.998 132C524.523 132 529 127.525 529 122C529 116.478 524.523 112 518.998 112C513.477 112 509 116.478 509 122Z" fill="#A2AB9A"/>
<path d="M400 201.544V363.459C400 370.938 393.917 377 386.411 377H234.589C227.086 377 221 370.938 221 363.459V201.544C221 194.065 227.086 188 234.589 188H386.411C393.917 188 400 194.065 400 201.544Z" fill="#E6DFD5"/>
<path d="M543 218.995V246.008C543 250.976 539.249 255 534.62 255H416.377C411.751 255 408 250.976 408 246.008V218.995C408 214.028 411.751 210 416.377 210H534.62C539.249 210 543 214.028 543 218.995Z" fill="#E6DFD5"/>
<path d="M576 278.183V288.817C576 290.574 574.638 292 572.961 292H411.039C409.359 292 408 290.574 408 288.817V278.183C408 276.426 409.359 275 411.039 275H572.961C574.638 275 576 276.426 576 278.183Z" fill="#E6DFD5"/>
<path d="M576 316.183V326.82C576 328.577 574.638 330 572.961 330H411.039C409.359 330 408 328.577 408 326.82V316.183C408 314.423 409.359 313 411.039 313H572.961C574.638 313 576 314.423 576 316.183Z" fill="#E6DFD5"/>
<mask id="mask0_13_196" style="mask-type:luminance" maskUnits="userSpaceOnUse" x="113" y="15" width="302" height="336">
<path d="M113.468 15H414.694V350.488H113.468V15Z" fill="white"/>
</mask>
<g mask="url(#mask0_13_196)">
<path d="M413.986 16.9421C392.935 20.276 375.981 37.2965 367.463 56.8317C358.917 76.3921 357.496 98.2205 357.332 119.555C357.196 135.048 357.661 150.566 358.724 166.027C359.79 181.628 361.428 197.199 361.51 212.828C361.646 243.371 355.64 273.942 343.927 302.138C339.72 312.301 334.643 321.126 327.298 329.21C318.398 339.073 310.917 350.273 293.552 350.22C292.514 350.22 291.502 350.166 290.493 350.055C278.343 344.592 267.776 335.66 260.213 324.675C247.614 306.341 247.371 280.863 247.817 280.882L114.193 276.238C117.058 269.517 119.133 262.47 120.417 255.311C123.552 237.826 123.16 219.651 123.929 201.944C126.279 147.767 126.01 86.5835 159.007 40.3837C174.234 19.0677 193.883 14.9367 218.274 15.1613C268.81 15.62 311.859 16.0122 362.402 16.474C379.597 16.629 396.791 16.7871 413.986 16.9421Z" fill="#A2AB9A"/>
</g>
<g filter="url(#filter1_d_13_196)">
<path d="M214 67.2432L214.148 56L340 57.76L339.852 69L214 67.2432Z" fill="#E6DFD5"/>
<path d="M213 99.2432L213.145 88L339 89.76L338.852 101L213 99.2432Z" fill="#E6DFD5"/>
<path d="M213 130.375L213.145 120L339 121.622L338.852 132L213 130.375Z" fill="#E6DFD5"/>
<path d="M146 195V195.336L145 196C145.329 195.664 145.671 195.336 146 195Z" fill="#F7B40D"/>
<path d="M58.2157 274.552C58.3928 274.205 58.7629 273.988 59.1489 274.001L247.88 280.584C247.43 280.568 247.75 306.406 260.28 324.763C268.236 336.416 279.024 345.127 292 350.534C291.412 350.613 289.659 351.018 289.067 350.999L83.0898 349.309C81.2676 349.296 79.4613 348.792 77.965 347.743C54.3816 331.2 46.8304 296.894 58.2157 274.552Z" fill="#C3CABA"/>
<path d="M465.401 449L457 460.984C457 460.984 457.038 461.076 457.082 461.272L473.133 529.092L549.599 542L558 530.016C558 530.016 546.497 520.512 544.678 519.538C543.566 518.962 541.309 518.393 539.493 517.931L524.416 481.988L475.697 466.805L477.443 464.312L477.481 460.181L465.401 449Z" fill="#C3CABA"/>
<path d="M558 530L482.024 517.087L466 449L532.985 470.009L558 530Z" fill="#A2AB9A"/>
<path d="M485.401 421L477 432.984C477 432.984 477.038 433.076 477.082 433.272L493.133 501.092L569.599 514L578 502.016C578 502.016 566.497 492.512 564.678 491.538C563.562 490.962 561.309 490.393 559.493 489.931L544.416 453.988L495.697 438.805L497.443 436.312L497.481 432.181L485.401 421Z" fill="#C3CABA"/>
<path d="M578 502L502.024 489.087L486 421L552.985 442.006L578 502Z" fill="#A2AB9A"/>
<path d="M503.401 395L495 406.984C495 406.984 495.038 407.076 495.082 407.272L511.133 475.092L587.599 488L596 476.016C596 476.016 584.497 466.512 582.678 465.538C581.566 464.962 579.309 464.393 577.493 463.931L562.416 427.988L513.697 412.805L515.443 410.312L515.481 406.181L503.401 395Z" fill="#C3CABA"/>
<path d="M596 477L519.198 463.928L503 395L570.713 416.265L596 477Z" fill="#A2AB9A"/>
<path d="M324.933 421.062L312.771 540.014C312.012 547.343 305.435 552.65 298.115 551.936L187.033 540.554C183.028 540.15 179.669 538.049 177.5 535.036L177.368 535.055L165.316 522.255C165.256 522.129 165.149 522.006 165 521.892L165.506 520.884C165.923 519.709 168.366 518.177 174.28 519.889C174.747 520.057 175.241 520.041 175.721 519.937L187.28 406.989C187.991 399.667 194.562 394.316 201.891 395.071L301.18 405.217C302.163 397.762 306.911 402.254 307.22 398.091L308.987 397.108C309.05 397.279 309.114 397.409 309.174 397.535L321.753 410.985C324.064 413.667 325.312 417.24 324.933 421.062Z" fill="#C3CABA"/>
<path d="M311.93 408.067L299.764 527.013C299.014 534.345 292.463 539.681 285.128 538.929L173.99 527.569C166.658 526.817 161.321 520.268 162.07 512.935L174.233 393.99C174.986 386.657 181.537 381.321 188.868 382.07L300.01 393.434C307.342 394.183 312.679 400.735 311.93 408.067Z" fill="#A2AB9A"/>
<path d="M200 488.519L202 489C201.542 487.685 201.475 487.824 200 488.519Z" fill="#62C7F4"/>
<path d="M202 489L200 488.52C201.459 487.831 201.539 487.676 202 489Z" fill="#62C7F4"/>
</g>
<path d="M174.211 489.837L210.425 412.748L229.755 414.087L254.658 495.41L233.764 493.963L215.472 425.784L222.735 426.287L194.658 491.254L174.211 489.837ZM193.83 477.275L194.929 461.409L238.616 464.435L237.517 480.301L193.83 477.275ZM262.074 495.924L267.562 416.706L287.562 418.091L282.074 497.309L262.074 495.924Z" fill="#E6DFD5"/>
<defs>
<filter id="filter0_d_13_196" x="103" y="19" width="591" height="524" filterUnits="userSpaceOnUse" color-interpolation-filters="sRGB">
<feFlood flood-opacity="0" result="BackgroundImageFix"/>
<feColorMatrix in="SourceAlpha" type="matrix" values="0 0 0 0 0 0 0 0 0 0 0 0 0 0 0 0 0 0 127 0" result="hardAlpha"/>
<feOffset dy="4"/>
<feGaussianBlur stdDeviation="40"/>
<feComposite in2="hardAlpha" operator="out"/>
<feColorMatrix type="matrix" values="0 0 0 0 0.218843 0 0 0 0 0.24375 0 0 0 0 0.181483 0 0 0 1 0"/>
<feBlend mode="normal" in2="BackgroundImageFix" result="effect1_dropShadow_13_196"/>
<feBlend mode="normal" in="SourceGraphic" in2="effect1_dropShadow_13_196" result="shape"/>
</filter>
<filter id="filter1_d_13_196" x="-7" y="0" width="663" height="616" filterUnits="userSpaceOnUse" color-interpolation-filters="sRGB">
<feFlood flood-opacity="0" result="BackgroundImageFix"/>
<feColorMatrix in="SourceAlpha" type="matrix" values="0 0 0 0 0 0 0 0 0 0 0 0 0 0 0 0 0 0 127 0" result="hardAlpha"/>
<feOffset dy="4"/>
<feGaussianBlur stdDeviation="30"/>
<feComposite in2="hardAlpha" operator="out"/>
<feColorMatrix type="matrix" values="0 0 0 0 0 0 0 0 0 0 0 0 0 0 0 0 0 0 0.25 0"/>
<feBlend mode="normal" in2="BackgroundImageFix" result="effect1_dropShadow_13_196"/>
<feBlend mode="normal" in="SourceGraphic" in2="effect1_dropShadow_13_196" result="shape"/>
</filter>
</defs>
</svg>
